<?xml version="1.0" encoding="iso-8859-1"?>
<!-- Generator: Adobe Illustrator 26.4.1, SVG Export Plug-In . SVG Version: 6.00 Build 0)  -->
<svg version="1.1" id="Arizona_Western_College" xmlns="http://www.w3.org/2000/svg" xmlns:xlink="http://www.w3.org/1999/xlink"
	 x="0px" y="0px" viewBox="0 0 541.592 190.674" style="enable-background:new 0 0 541.592 190.674;" xml:space="preserve">
<g>
	<g>
		<rect x="258.806" y="123.781" style="fill:#2CCCD3;" width="259.491" height="34.044"/>
		<g>
			<path style="fill:#FFFFFF;" d="M269.186,141.142c0-6.476,4.449-11.288,10.955-11.288c2.36,0,4.479,0.605,6.052,1.694
				c2.239,1.544,3.541,3.964,3.813,6.718h-6.325c-0.151-1.694-1.574-3.208-3.631-3.208c-2.996,0-4.448,2.542-4.448,6.083
				s1.695,6.083,4.509,6.083c2.209,0,3.541-1.452,3.753-3.389h6.385c-0.182,2.391-1.271,4.509-2.814,5.992
				c-1.846,1.786-4.146,2.573-7.293,2.573C273.544,152.4,269.186,147.618,269.186,141.142z"/>
			<path style="fill:#FFFFFF;" d="M307.588,141.142c0-6.476,4.237-11.288,10.955-11.288s11.015,4.811,11.015,11.288
				c0,6.476-4.297,11.257-11.015,11.257S307.588,147.618,307.588,141.142z M323.142,141.142c0-3.541-1.543-6.234-4.57-6.234
				c-3.026,0-4.569,2.693-4.569,6.234s1.543,6.204,4.569,6.204C321.599,147.346,323.142,144.683,323.142,141.142z"/>
			<path style="fill:#FFFFFF;" d="M347.956,130.248h6.325v16.22h9.26v5.417h-15.585V130.248z"/>
			<path style="fill:#FFFFFF;" d="M381.849,130.248h6.325v16.22h9.26v5.417h-15.585V130.248z"/>
			<path style="fill:#FFFFFF;" d="M415.742,130.248h16.856v5.145h-10.531v2.935h8.806v4.751h-8.806v3.389H432.9v5.417h-17.159
				V130.248z"/>
			<path style="fill:#FFFFFF;" d="M466.914,149.585h-0.061c-1.362,1.967-3.571,2.814-6.204,2.814c-2.905,0-5.387-0.999-7.142-2.875
				c-1.997-2.118-2.996-5.023-2.996-8.382c0-6.385,4.055-11.288,10.743-11.288c5.659,0,9.23,2.935,9.926,7.747h-6.113
				c-0.333-1.392-1.634-2.542-3.571-2.542c-3.026,0-4.569,2.542-4.569,6.083s1.755,6.173,4.812,6.173c2.3,0,3.42-1.241,3.813-2.693
				h-2.875v-4.479h8.927v11.742h-4.207L466.914,149.585z"/>
			<path style="fill:#FFFFFF;" d="M490.396,130.248h16.856v5.145h-10.531v2.935h8.806v4.751h-8.806v3.389h10.834v5.417h-17.159
				V130.248z"/>
		</g>
		<g>
			<path style="fill:#BA0C2F;" d="M273.087,30.66h11.522l14.335,38.677h-12.009l-1.893-5.68h-13.091l-1.893,5.68h-11.252
				L273.087,30.66z M274.493,55.868h8.006l-2.434-7.573c-0.595-1.894-1.46-4.977-1.46-4.977h-0.108c0,0-0.811,3.083-1.461,4.977
				L274.493,55.868z"/>
			<path style="fill:#BA0C2F;" d="M302.849,30.66h19.203c7.898,0,14.606,3.624,14.606,11.522c0,4.436-2.272,7.573-6.329,9.412v0.163
				c3.138,1.19,4.76,3.354,5.41,6.383c1.028,4.652,0.162,10.224,1.569,10.603v0.595h-11.143c-1.082-0.757-0.649-5.518-1.461-8.98
				c-0.703-2.975-2.001-4.49-5.301-4.49h-5.247v13.469h-11.306V30.66z M314.155,47.808h6.059c3.246,0,5.031-1.407,5.031-4.111
				c0-2.543-1.623-4.165-4.868-4.165h-6.221V47.808z"/>
			<path style="fill:#BA0C2F;" d="M341.849,30.66h11.306v38.677h-11.306V30.66z"/>
			<path style="fill:#BA0C2F;" d="M358.401,60.033l14.443-16.607c1.298-1.515,3.083-3.137,3.083-3.137v-0.162
				c0,0-1.947,0.216-3.678,0.216h-12.442V30.66h31.158v8.493l-14.335,16.499c-1.785,2.056-3.949,4.057-3.949,4.057v0.162
				c0,0,2.164-0.216,4.544-0.216h14.768v9.683h-33.592V60.033z"/>
			<path style="fill:#BA0C2F;" d="M395.67,50.134c0-11.576,7.573-20.177,19.582-20.177c12.009,0,19.69,8.601,19.69,20.177
				c0,11.576-7.681,20.123-19.69,20.123C403.244,70.257,395.67,61.71,395.67,50.134z M423.475,50.134
				c0-6.329-2.759-11.143-8.168-11.143c-5.41,0-8.168,4.814-8.168,11.143s2.759,11.089,8.168,11.089
				C420.716,61.223,423.475,56.463,423.475,50.134z"/>
			<path style="fill:#BA0C2F;" d="M439.16,30.66h11.306l12.658,21.746h0.108V30.66h10.927v38.677h-11.684L450.195,47.43h-0.108
				v21.908H439.16V30.66z"/>
			<path style="fill:#BA0C2F;" d="M492.44,30.66h11.522l14.335,38.677h-12.009l-1.893-5.68h-13.091l-1.893,5.68h-11.252
				L492.44,30.66z M493.846,55.868h8.006l-2.434-7.573c-0.595-1.894-1.46-4.977-1.46-4.977h-0.108c0,0-0.811,3.083-1.461,4.977
				L493.846,55.868z"/>
			<path style="fill:#BA0C2F;" d="M258.806,77.84h10.672l2.655,12.511c0.868,3.983,1.787,10.161,1.787,10.161h0.102
				c0,0,0.97-5.464,1.889-9.651l2.808-13.021h9.651l2.809,12.919c0.919,4.238,1.838,9.753,1.838,9.753h0.102
				c0,0,0.97-6.179,1.838-10.264l2.655-12.409h10.928l-9.6,36.511h-10.775L284.9,98.879c-0.664-3.166-1.277-7.098-1.277-7.098
				h-0.102c0,0-0.613,3.932-1.277,7.098l-3.166,15.472h-10.928L258.806,77.84z"/>
			<path style="fill:#BA0C2F;" d="M312.05,77.84h28.443v8.681h-17.77v4.953h14.86v8.017h-14.86v5.719h18.281v9.14H312.05V77.84z"/>
			<path style="fill:#BA0C2F;" d="M344.119,102.709h10.928c0.357,2.911,2.604,4.289,6.128,4.289c2.094,0,4.647-0.817,4.647-3.013
				c0-2.196-2.451-2.757-6.945-3.881c-6.128-1.532-13.532-3.626-13.532-11.388c0-8.374,6.843-11.54,15.064-11.54
				c7.558,0,14.502,3.166,14.655,11.132h-10.57c-0.306-1.991-1.736-3.268-4.647-3.268c-2.349,0-3.983,1.072-3.983,2.553
				c0,2.145,3.115,2.451,8.579,3.779c6.128,1.481,12.255,3.881,12.255,11.642c0,7.966-7.098,12.204-15.728,12.204
				C351.472,115.219,344.272,111.134,344.119,102.709z"/>
			<path style="fill:#BA0C2F;" d="M378.589,77.84h31.455v9.089h-10.468v27.421h-10.672V86.93h-10.315V77.84z"/>
			<path style="fill:#BA0C2F;" d="M414.437,77.84h28.443v8.681h-17.77v4.953h14.86v8.017h-14.86v5.719h18.281v9.14h-28.953V77.84z"
				/>
			<path style="fill:#BA0C2F;" d="M448.133,77.84h18.128c7.455,0,13.787,3.421,13.787,10.877c0,4.188-2.145,7.149-5.975,8.885v0.153
				c2.962,1.123,4.494,3.166,5.106,6.025c0.97,4.392,0.153,9.651,1.481,10.009v0.562h-10.519c-1.021-0.715-0.613-5.209-1.379-8.477
				c-0.664-2.809-1.889-4.238-5.004-4.238h-4.953v12.715h-10.672V77.84z M458.805,94.028h5.719c3.064,0,4.749-1.328,4.749-3.881
				c0-2.4-1.532-3.932-4.596-3.932h-5.872V94.028z"/>
			<path style="fill:#BA0C2F;" d="M485.259,77.84h10.672l11.949,20.528h0.102V77.84h10.315v36.511h-11.03L495.676,93.67h-0.102
				v20.681h-10.315V77.84z"/>
		</g>
	</g>
	<g>
		<path style="fill:#BA0C2F;" d="M73.918,60.542c-1.295-4.699,0.925-8.038,5.738-8.384c3.579-0.255,7.159-0.48,10.74-0.676V23.376
			C67.98,24.604,45.61,26.978,23.376,30.5v28.105c1.225-0.194,2.45-0.384,3.675-0.571c3.862-0.589,6.44,0.714,7.544,4.625
			c9.224,27.866,18.469,55.929,27.728,84.189c6.369-19.342,12.745-38.592,19.125-57.748C78.937,79.566,76.427,70.047,73.918,60.542z
			"/>
		<path style="fill:#BA0C2F;" d="M162.302,23.376v28.105c3.582,0.196,7.162,0.422,10.74,0.676c4.813,0.346,7.033,3.685,5.738,8.384
			c-2.509,9.505-5.019,19.025-7.53,28.558c6.381,19.156,12.756,38.406,19.125,57.748c9.259-28.26,18.504-56.323,27.728-84.189
			c1.104-3.911,3.681-5.214,7.544-4.625c1.225,0.187,2.451,0.378,3.675,0.571V30.5C207.088,26.978,184.719,24.604,162.302,23.376z"
			/>
		<path style="fill:#BA0C2F;" d="M150.554,50.941c-8.066-0.297-16.135-0.445-24.205-0.445c-8.07,0-16.139,0.148-24.205,0.445
			c-11.896,35.296-23.784,70.915-35.649,106.856c-0.008,0.028-0.018,0.054-0.026,0.083c1.047,3.162,2.094,6.327,3.142,9.497
			c10.983-1.468,22.01-2.502,33.054-3.102c0.888-2.977,23.683-85.035,23.683-85.035s0,0.001,0,0.001c0,0,0-0.001,0-0.001
			s22.795,82.058,23.683,85.035c11.044,0.6,22.071,1.635,33.054,3.102c1.048-3.17,2.095-6.335,3.142-9.497
			c-0.008-0.028-0.018-0.054-0.026-0.083C174.338,121.855,162.45,86.237,150.554,50.941z"/>
	</g>
	<path style="fill:#2CCCD3;" d="M130.079,120.513c-1.243-0.007-2.486-0.012-3.73-0.013c-1.243,0-2.486,0.006-3.73,0.013
		c-2.228,8.012-4.501,16.178-6.502,23.363c3.41-0.053,6.821-0.081,10.232-0.081c3.411,0,6.822,0.028,10.232,0.081
		C134.58,136.691,132.307,128.525,130.079,120.513z"/>
</g>
</svg>
